<svg xmlns="http://www.w3.org/2000/svg" xmlns:xlink="http://www.w3.org/1999/xlink" width="688" height="205.68"><rect width="688" height="205.68" rx="0" ry="0" class="a"/><svg height="173.68" viewBox="0 0 64 17.368" width="640" x="24" xmlns="http://www.w3.org/2000/svg" xmlns:xlink="http://www.w3.org/1999/xlink" y="16"><style>.a{fill:#282d35}.i,.j,.l,.n,.q,.r{fill:#fff;white-space:pre}.j,.l,.n,.q,.r{fill:#b9c0cb}.l,.n,.q,.r{fill:#87ff87}.n,.q,.r{fill:#5f87af}.q,.r{fill:#5f5f5f}.r{fill:gray;font-weight:700}</style><g font-family="Monaco,Consolas,Menlo,'Bitstream Vera Sans Mono','Powerline Symbols',monospace" font-size="1.67"><defs><symbol id="1"><text y="1.67" style="white-space:pre" fill="#00ffd7">─────────────────────────────────────────────────────</text></symbol><symbol id="a"><path fill="transparent" d="M0 0h64v9H0z"/></symbol></defs><path class="a" d="M0 0h64v17.368H0z"/><svg width="64"><svg><use xlink:href="#a"/><text y="1.67" style="white-space:pre" fill="#71bef2">~</text><text y="3.841" style="white-space:pre" fill="#d290e4">❯</text><text x="2.004" y="3.841" style="white-space:pre" fill="#8be9fd">pihello</text><text x="10.02" y="3.841" style="white-space:pre" fill="#bd93f9">192.168.1.2</text><use xlink:href="#1" y="4.342"/><text y="8.183" class="i">PiHole</text><text x="7.014" y="8.183" class="j">(</text><text x="8.016" y="8.183" style="white-space:pre" fill="#008700">enabled</text><text x="15.03" y="8.183" class="j">)</text><text x="17.034" y="8.183" class="l">v5.1.2</text><text x="23.046" y="8.183" class="i">,</text><text x="25.05" y="8.183" class="i">Web</text><text x="29.058" y="8.183" class="l">v5.1.1</text><text x="35.07" y="8.183" class="i">,</text><text x="37.074" y="8.183" class="i">FTL</text><text x="41.082" y="8.183" class="l">v5.2</text><use xlink:href="#1" y="8.684"/><text y="12.525" class="j">Blocking</text><text x="9.018" y="12.525" style="white-space:pre" fill="#00af87">94541</text><text x="15.03" y="12.525" class="j">domains</text><text x="23.046" y="12.525" class="j">for</text><text x="27.054" y="12.525" class="n">9</text><text x="29.058" y="12.525" class="j">clients</text><text y="14.696" class="j">Blocked</text><text x="8.016" y="14.696" style="white-space:pre" fill="#d290e3">2412</text><text x="13.026" y="14.696" class="j">out</text><text x="17.034" y="14.696" class="j">of</text><text x="20.04" y="14.696" class="l">11875</text><text x="26.052" y="14.696" class="j">queries</text><text x="34.068" y="14.696" style="white-space:pre" fill="#b9c0cb" text-decoration="underline">today</text><text x="40.08" y="14.696" class="j">(</text><text x="41.082" y="14.696" class="n">20.3%</text><text x="46.092" y="14.696" class="j">)</text><text y="16.867" class="q">Gravity</text><text x="8.016" y="16.867" class="q">last</text><text x="13.026" y="16.867" class="q">updated</text><text x="21.042" y="16.867" class="r">5</text><text x="23.046" y="16.867" class="q">days</text><text x="28.056" y="16.867" class="r">11</text><text x="31.062" y="16.867" class="q">hours</text><text x="37.074" y="16.867" class="q">and</text><text x="41.082" y="16.867" class="r">49</text><text x="44.088" y="16.867" class="q">minutes</text><text x="52.104" y="16.867" class="q">ago</text></svg></svg></g></svg></svg>